<svg width="27" height="28" viewBox="0 0 27 28" fill="none" xmlns="http://www.w3.org/2000/svg">
<path d="M18.4569 2.03625C17.2406 0.723125 15.5419 0 13.6669 0C11.7819 0 10.0775 0.71875 8.86686 2.02375C7.64311 3.34312 7.04686 5.13625 7.18686 7.0725C7.46436 10.8925 10.3712 14 13.6669 14C16.9625 14 19.8644 10.8931 20.1462 7.07375C20.2881 5.155 19.6881 3.36563 18.4569 2.03625ZM24.6669 28H2.66686C2.3789 28.0037 2.09373 27.9433 1.83209 27.8229C1.57045 27.7026 1.33893 27.5254 1.15436 27.3044C0.748111 26.8188 0.584361 26.1556 0.705611 25.485C1.23311 22.5588 2.87936 20.1006 5.46686 18.375C7.76561 16.8431 10.6775 16 13.6669 16C16.6562 16 19.5681 16.8438 21.8669 18.375C24.4544 20.1 26.1006 22.5581 26.6281 25.4844C26.7494 26.155 26.5856 26.8181 26.1794 27.3037C25.9949 27.5249 25.7634 27.7022 25.5017 27.8226C25.2401 27.9431 24.9549 28.0037 24.6669 28Z" fill="#191919" fill-opacity="0.3"/>
</svg>
