<svg xmlns="http://www.w3.org/2000/svg" width="326" height="12" fill="none"><path fill="#fff" d="M7.503 2.334c.05.125.155.481.313 1.07.07.266.108.55.112.85H7.39c-.378-.567-.768-.973-1.17-1.22a2.499 2.499 0 0 0-1.348-.375c-.611 0-1.104.252-1.478.757-.508.684-.763 1.637-.763 2.86 0 .708.044 1.213.13 1.513.142.488.322.887.538 1.195.166.234.383.42.65.557a2.3 2.3 0 0 0 1.112.282c.434 0 .851-.142 1.253-.426.406-.288.794-.715 1.165-1.282.146-.03.337-.046.573-.05a4.755 4.755 0 0 1-.077.494l-.136.794-.053.188-.082.294c-.24.196-.58.344-1.017.444-.434.096-.968.144-1.602.144-.485 0-.944-.048-1.378-.143a3.187 3.187 0 0 1-1.105-.457c-.45-.3-.802-.626-1.058-.976A3.815 3.815 0 0 1 .97 7.702a4.89 4.89 0 0 1-.183-1.39c0-1.242.386-2.268 1.159-3.077.776-.81 1.765-1.214 2.967-1.214.489 0 .948.027 1.378.081.433.05.837.127 1.212.232ZM8.289 10.305l.012-.426c.074-.025.207-.056.396-.094.303-.062.486-.119.55-.169.066-.05.147-.17.242-.363l1.194-3.31 1.401-3.89c.13.003.254.005.373.005h.265l.054.113 1.028 2.578c.233.546.442 1.078.627 1.595.185.513.345.932.479 1.258.079.196.187.49.325.882.07.213.18.48.325.8.079.176.138.278.178.307.07.063.185.105.342.125.162.021.335.07.52.144.02.138.03.24.03.307 0 .029-.002.075-.006.138-.291 0-.613-.015-.963-.044a12.67 12.67 0 0 0-1.62-.031l-1.005.056-.29.012c0-.146.006-.286.018-.419l.656-.15c.197-.054.312-.096.343-.125.04-.042.06-.09.06-.144 0-.054-.01-.11-.03-.17l-.237-.612-.467-1.226-2.258-.007c-.083.2-.254.69-.514 1.47-.075.222-.113.372-.113.451 0 .108.028.186.083.232.09.079.264.135.52.168.036.009.175.032.42.07.004.15.006.254.006.312a.936.936 0 0 1-.012.144c-.244 0-.828-.035-1.75-.106l-.242.043c-.292.05-.57.076-.834.076H8.29Zm2.778-3.517c.922.013 1.466.02 1.632.02l.148-.007a23.977 23.977 0 0 0-.461-1.295c-.19-.497-.343-.874-.461-1.133l-.858 2.415ZM19.52 8.04c2.098-2.24 3.47-3.752 4.116-4.536 0-.309-.01-.486-.03-.532-.02-.05-.085-.102-.195-.157-.11-.058-.325-.127-.645-.206a2.252 2.252 0 0 1-.301-.088 1.69 1.69 0 0 1 .047-.356l.166-.006c.33 0 .552.006.662.018.311.042.623.063.934.063.504 0 .965-.023 1.383-.069.154-.017.276-.025.367-.025.086 0 .21.006.372.019a4.617 4.617 0 0 1-.03.444c-.449.1-.744.181-.886.244-.138.058-.207.165-.207.319v.907l.006 1.39-.012.794.018 1.126v.888l.012.739c0 .146-.004.312-.012.5.083.025.16.046.23.063.37.083.65.169.84.256l.018.438-.255.007c-.067 0-.143-.005-.23-.013l-.444-.025c-.323-.038-.839-.056-1.548-.056-.363 0-.64.012-.834.037a6.09 6.09 0 0 1-.45.044.657.657 0 0 1-.182-.038c.003-.2.013-.335.029-.406l.402-.1.23-.044c.249-.042.41-.077.485-.107.052-.308.077-1.046.077-2.214l-.006-1.846.012-1.164-4.138 4.511c.004.467.01.711.018.732.023.03.092.05.207.063l.384.062c.339.067.528.115.567.144.012.096.018.16.018.194 0 .054-.008.13-.023.226l-.367.006c-.15 0-.36-.013-.633-.038l-.443-.006-.301-.019-.538-.019c-.174 0-.385.013-.633.038-.252.025-.59.037-1.01.037 0-.129.01-.277.035-.444.035-.008.118-.02.248-.037l.254-.05c.248-.046.436-.096.562-.15.04-.789.059-1.477.059-2.065V6.7l.017-2.115c0-.638-.021-1.187-.064-1.645a.79.79 0 0 0-.042-.132.29.29 0 0 0-.106-.025 1.245 1.245 0 0 1-.113-.019 4 4 0 0 0-.49-.062l-.089-.025a.989.989 0 0 1-.242-.05 3.207 3.207 0 0 1-.018-.232.85.85 0 0 1 .035-.206c.087-.021.18-.031.278-.031.288 0 .623.018 1.005.056a8.168 8.168 0 0 0 1.744.006 8.93 8.93 0 0 1 .585-.056c.075 0 .17.01.284.031l.006.188c0 .066-.008.148-.023.244l-1.041.175c-.06.008-.095.106-.106.294-.012.188-.018.41-.018.67l.006.293-.006.564.006.325-.018.425c0 .055.004.153.012.294.008.188.012.374.012.557 0 .15-.004.3-.012.45l-.018.326.012 1.039Zm.19-7.414c0-.176.057-.324.172-.445A.58.58 0 0 1 20.313 0c.142 0 .26.04.355.119.094.08.219.267.372.563.21.4.44.6.692.6.252 0 .48-.2.686-.6.134-.259.25-.436.349-.532.102-.1.232-.15.39-.15.165 0 .303.063.413.188.11.12.166.267.166.438 0 .338-.195.596-.585.775-.39.176-.857.263-1.401.263-.591 0-1.08-.09-1.466-.269-.383-.18-.574-.436-.574-.77ZM27.496 1.852h.366l.06.1c.11.2.194.332.254.394.05.017.32.025.81.025.303 0 .573-.002.81-.006l.118-.019.715-.006 1.336.012h1.827l.349-.056c.05-.037.106-.137.165-.3l.065-.157.26-.006c.04 0 .099.002.178.006.004.288.005.722.005 1.302l.006.557-.006.319c0 .108-.007.202-.023.281a2.011 2.011 0 0 1-.426.1 4.467 4.467 0 0 1-.337-.707c-.118-.308-.193-.48-.224-.513a.328.328 0 0 0-.166-.106c-.095-.02-.512-.031-1.253-.031-.11 0-.248.008-.414.025a2.9 2.9 0 0 0-.035.4l.005.838v1.84l.024 1.983-.006.814c0 .287.024.504.071.65.063.03.18.057.349.082.031.004.177.037.437.1.118.029.223.062.314.1.02.15.03.242.03.275 0 .038-.007.092-.019.163a10.333 10.333 0 0 1-1.247-.038c-.284-.033-.798-.05-1.543-.05-.118 0-.465.025-1.04.075-.225.017-.37.025-.438.025a2.836 2.836 0 0 0-.012-.144l-.006-.143v-.05c.087-.122.25-.211.491-.27.41-.104.694-.198.851-.281a.82.82 0 0 0 .071-.313c.028-.5.042-1.297.042-2.39l-.03-2.365c0-.65-.012-1.045-.035-1.182a.141.141 0 0 0-.042-.082.13.13 0 0 0-.082-.037c-.123-.017-.52-.025-1.195-.025-.37 0-.618.037-.744.112-.17.105-.424.388-.763.851-.099.134-.172.2-.219.2-.181-.1-.297-.181-.349-.244.123-.27.292-.813.509-1.626.063-.238.108-.399.136-.482ZM42.677 5.537c.35.117.66.321.928.613s.593.795.976 1.508c.449.838.788 1.376 1.016 1.614.233.234.542.409.928.526.142.041.233.075.272.1.008.075.012.133.012.175 0 .05-.008.127-.023.232l-.65-.013-.893-.025c-.225 0-.52.014-.887.044-.248-.568-.625-1.295-1.13-2.184-.504-.892-.874-1.422-1.11-1.589a1.229 1.229 0 0 0-.728-.256 4.178 4.178 0 0 0-.023.419l.03.863c.007.175.011.342.011.5l-.012.751.012.22.012.431c.079.096.276.188.59.275.178.05.328.117.45.2.012.084.018.147.018.188 0 .034-.004.086-.012.157a9.49 9.49 0 0 1-.431.012c-.292 0-.611-.012-.958-.037l-.396-.025-.532.018-1.047-.006-.561.019-.006-.35c.035-.03.22-.11.556-.244l.153-.07c.174-.083.29-.133.35-.15a.344.344 0 0 0 .153-.206c.023-.092.035-.417.035-.976l-.017-.6.005-1.327-.005-.938.011-.276-.011-.807.017-.319c0-.484-.03-.811-.088-.982-.123-.109-.36-.209-.71-.3-.209-.055-.35-.11-.425-.17l.04-.387c.076-.013.155-.019.237-.019.288 0 .574.02.858.063a8.84 8.84 0 0 0 1.105.056l.254-.013.71-.025c.106-.004.252-.014.437-.031l.207-.019.148.007c.012.033.018.079.018.137 0 .142-.006.234-.018.275-.24.096-.489.167-.745.213-.197.038-.32.073-.367.107-.047.033-.07.108-.07.225 0 .417.003.692.011.826l.012.531-.012.4v.476l-.006.538c.233-.079.46-.202.68-.369.22-.167.499-.546.834-1.138.575-1.022 1.058-1.67 1.448-1.946.394-.28.788-.42 1.182-.42.395 0 .694.107.899.32.209.208.313.459.313.75a.91.91 0 0 1-.195.576.622.622 0 0 1-.526.25.686.686 0 0 1-.414-.112c-.098-.08-.22-.23-.366-.45-.142-.226-.284-.339-.426-.339-.33 0-.758.476-1.283 1.427-.307.55-.589.91-.845 1.076ZM47.306 6.15c0-.517.094-1.036.284-1.558.137-.375.33-.72.579-1.032.248-.313.56-.59.934-.832a3.94 3.94 0 0 1 1.147-.526c.39-.108.825-.162 1.306-.162.82 0 1.531.162 2.134.488a3.736 3.736 0 0 1 1.425 1.32c.45.721.674 1.478.674 2.27 0 1.181-.38 2.193-1.14 3.035-.758.843-1.812 1.264-3.164 1.264-.335 0-.648-.023-.94-.069a3.182 3.182 0 0 1-.579-.137c-.3-.105-.467-.165-.502-.182a5.007 5.007 0 0 1-1.035-.794 4.082 4.082 0 0 1-.662-.92c-.099-.192-.21-.538-.337-1.039a4.546 4.546 0 0 1-.124-1.126Zm4.026-3.491c-.343 0-.647.086-.91.257a1.927 1.927 0 0 0-.598.556 3.516 3.516 0 0 0-.479 1.139c-.094.409-.142.907-.142 1.495 0 .36.014.616.042.77.008.05.02.135.035.256.036.31.077.534.124.676.17.53.29.857.361.982.118.213.294.424.526.632.118.109.29.209.515.3.224.088.449.132.673.132.426 0 .82-.104 1.183-.313.366-.213.66-.571.88-1.076.221-.505.332-1.162.332-1.97 0-.334-.022-.787-.065-1.358l-.03-.12a2.626 2.626 0 0 1-.059-.256c-.146-.684-.426-1.205-.84-1.564-.41-.359-.926-.538-1.548-.538ZM56.74 10.28c0-.126.013-.274.036-.445l.74-.137c.09-.021.198-.055.324-.1l.077-1.565a49.752 49.752 0 0 1-.023-1.263l.006-.15c.011-.172.017-.601.017-1.29l-.012-.18.012-.526-.006-.545V3.81c0-.242-.017-.525-.053-.85a.781.781 0 0 0-.047-.15.402.402 0 0 0-.107-.026 1.25 1.25 0 0 1-.112-.019 4.283 4.283 0 0 0-.49-.062l-.09-.025a1.082 1.082 0 0 1-.242-.05 3.27 3.27 0 0 1-.017-.232.85.85 0 0 1 .035-.206 1.69 1.69 0 0 1 .331-.025c.142 0 .24-.002.296-.006.48.054.837.083 1.07.087.106 0 .213.004.319.013.11.004.207.006.29.006.13 0 .447-.021.951-.063.083-.02.174-.031.272-.031.146 0 .268.008.367.025a1.552 1.552 0 0 1-.018.432l-1.04.175c-.087.042-.13.102-.13.181l.017.232.006.1-.006.275-.011.213v.05c.003.046.005.086.005.119l-.005.794c.003.076.005.132.005.17 0 .02-.003.087-.011.2a3.454 3.454 0 0 0-.006.206c0 .063.006.21.017.444.11.021.204.034.278.038l.875.019h.426l1.064.006 1.035-.031c.133 0 .275-.015.425-.044.008-.142.014-.49.018-1.045l.012-.282-.036-1.063-.041-.438c-.012-.03-.04-.056-.083-.082-.138-.083-.414-.177-.827-.281a1.605 1.605 0 0 1-.213-.063c.008-.146.023-.264.047-.356l.16-.006.573.006c.367.05.739.075 1.117.075.087 0 .156-.002.207-.006l.769-.025.207-.013c.142-.033.287-.05.437-.05.114 0 .252.006.414.019a4.81 4.81 0 0 1-.03.444c-.362.08-.6.138-.715.175a1.77 1.77 0 0 0-.337.144l-.035.125v.107l.005.162-.005.082a2.453 2.453 0 0 0-.012.2v.156l.006.313v.795l.006.6-.012.795c-.004.183.002.559.017 1.126v.888l.012.739c0 .137-.004.304-.011.5.082.025.16.046.23.063.37.083.65.169.84.256l.017.438-.278.007a6.47 6.47 0 0 1-.65-.038c-.323-.038-.843-.056-1.56-.056-.324 0-.742.027-1.254.08a.685.685 0 0 1-.2-.037c.003-.191.013-.327.029-.406l.455-.113.479-.081a3.13 3.13 0 0 0 .183-.057c.043-.337.067-.898.071-1.683l.006-.531a7.629 7.629 0 0 1-.035-.795 7.793 7.793 0 0 0-.474-.025l-2.742-.031-.054-.006-.041-.007a6.557 6.557 0 0 1-.355.013h-.165a.873.873 0 0 0-.255.044l-.023.469V7.1c.008.113.012.186.012.22V9.26c0 .108.006.219.017.331l.06.038.868.144a.595.595 0 0 0 .101.031.38.38 0 0 1 .13.056c.012.096.018.16.018.194 0 .054-.008.13-.024.226-.142.004-.262.006-.36.006a4.449 4.449 0 0 1-.343-.013l-.834-.037a8.35 8.35 0 0 0-.828-.032l-.124.007a5.169 5.169 0 0 0-.29.018c-.244.034-.626.05-1.146.05ZM68.328 2.916a1.46 1.46 0 0 0-.23-.063c-.371-.083-.651-.169-.84-.257l-.018-.444h.284l.207.006.437.032c.323.037.84.056 1.549.056.233 0 .447-.008.644-.025l.621-.056c.06 0 .126.01.201.031 0 .2-.008.338-.024.413l-.408.1-.23.038c-.248.041-.41.077-.485.106-.051.209-.077 1.506-.077 3.892l.036 2.709c.126.016.283.025.473.025l2.743.037.189.006c.398 0 .627-.016.686-.05l.023-1.145-.011-3.215-.006-1.809c0-.233-.006-.39-.018-.469-.024-.025-.093-.044-.207-.056l-.266-.044a3.397 3.397 0 0 1-.331-.062l-.219-.044a.322.322 0 0 1-.13-.057 1.479 1.479 0 0 1-.024-.194c0-.058.008-.133.024-.225l.367-.006c.15 0 .362.01.638.031l1.366.05c.153 0 .335-.016.543-.05l.379-.025.632-.006c0 .133-.011.284-.035.45l-.497.088a3.19 3.19 0 0 0-.561.144l-.083 1.564.03 1.27-.012.394-.018 1.752.012.538v.27c0 .462.041.765.124.906.083.142.248.25.496.326.154.05.25.119.29.206.04.084.063.344.071.782l.041.632c.012.159.02.323.024.495-.083.02-.195.033-.337.037a5.791 5.791 0 0 1-.213-.45c-.18-.438-.34-.728-.478-.87a1.077 1.077 0 0 0-.491-.288c-.193-.05-.818-.098-1.874-.144a73.248 73.248 0 0 0-3.18-.069c-1.049 0-1.788.025-2.218.075-.169.021-.287.032-.354.032-.075 0-.197-.009-.367-.025.004-.163.014-.311.03-.445.532-.108.883-.212 1.052-.312.036-.084.053-.32.053-.707 0-.03-.002-.071-.006-.125l-.005-.313-.006-1.396.005-1.107-.011-.82.006-.888-.018-.732c0-.146.004-.313.012-.5ZM77.556 2.202c.225.013.42.032.585.057.311.045.672.068 1.082.068.142 0 .506-.012 1.094-.037a56.307 56.307 0 0 1 2.382-.056l1.07-.013c.24 0 .595.031 1.064.094.071.083.106.196.106.338v1.289l.012.256c0 .025-.002.063-.006.113l-.242.012c-.032 0-.099-.004-.201-.012a8.078 8.078 0 0 1-.142-.37l-.236-.444a2.897 2.897 0 0 0-.379-.575 1.505 1.505 0 0 0-.378-.05l-.36-.032c-.367-.033-.761-.05-1.183-.05-.48 0-.91.009-1.289.025-.011.105-.017.516-.017 1.233l.011 1.051v.788c.099.013.184.02.255.02.705 0 1.207-.015 1.507-.045.3-.029.485-.068.556-.119a.67.67 0 0 0 .189-.275c.035-.092.104-.398.207-.92l.077-.006.343.006c.015.372.023.653.023.845 0 .438-.004.72-.012.845a10.06 10.06 0 0 0-.006.294c0 .112.006.294.018.544.012.246.018.43.018.55v.138h-.42a20.573 20.573 0 0 1-.089-.413c-.078-.388-.15-.63-.212-.725a.43.43 0 0 0-.237-.17c-.079-.028-.37-.043-.875-.043-.595 0-1.042.017-1.342.05-.004.108-.005.18-.005.213 0 .496.007.909.023 1.238l-.012 1.352c0 .158.053.267.16.325.162.088.656.132 1.484.132.548 0 1.013-.044 1.395-.132a1.37 1.37 0 0 0 .698-.419c.267-.28.49-.671.667-1.176.123-.013.223-.019.302-.019.043 0 .108.002.195.006l-.03.263-.035.188-.219 1.182-.106.713a13.2 13.2 0 0 1-.609.02c-.22 0-.81-.022-1.768-.063a57.502 57.502 0 0 0-2.435-.044c-.473 0-1.054.02-1.744.063h-.248l-.716.024v-.431c.075-.021.225-.044.45-.069.41-.05.693-.117.85-.2.044-.121.066-.273.066-.457 0-.07-.002-.192-.006-.363l.006-.194-.018-2.358.006-.707-.03-1.002.006-.707-.053-.775c0-.021-.004-.063-.012-.125a.283.283 0 0 0-.177-.088 6.539 6.539 0 0 1-.177-.038 3.664 3.664 0 0 0-.65-.087 3.75 3.75 0 0 1-.26-.025l.029-.5ZM86.187 2.621l-.006-.475 1.413.094.632-.006h.23c.241 0 .618-.015 1.13-.044.292-.021.475-.031.55-.031.496 0 .87.029 1.123.087.386.084.692.217.916.4.229.184.424.447.586.789.165.338.248.653.248.945 0 .725-.217 1.316-.65 1.77-.43.45-.974.676-1.632.676-.229 0-.447-.03-.656-.088a2.156 2.156 0 0 1-.58-.263 3.285 3.285 0 0 1-.03-.5c.096.008.18.015.255.019.079.004.148.006.207.006.335 0 .617-.098.845-.294.304-.254.456-.667.456-1.239 0-.409-.067-.742-.201-1-.13-.264-.286-.44-.467-.533a1.89 1.89 0 0 0-.852-.187c-.295 0-.506.045-.632.137a.778.778 0 0 0-.071.157l.041 2.946-.012.25.018.264c.004.058.006.143.006.256v.513l.006.82-.012.976c0 .137.012.323.036.557l1.176.156c.016.1.024.18.024.238 0 .062-.01.15-.03.263a1.473 1.473 0 0 1-.225.025c-.122 0-.352-.015-.691-.044-.34-.034-.725-.05-1.159-.05-.489 0-.954.033-1.395.1a3.433 3.433 0 0 1-.355.031 2.316 2.316 0 0 1-.023-.269c0-.037.003-.096.011-.175l.361-.125c.248-.08.463-.175.644-.288a1.186 1.186 0 0 0 .048-.476c-.004-.129-.006-.31-.006-.544l-.018-1.758-.065-1.983c-.028-.943-.05-1.452-.065-1.527a.564.564 0 0 0-.142-.281c-.067-.071-.18-.121-.337-.15a5.082 5.082 0 0 1-.65-.145ZM93.978 1.852h.367l.06.1c.11.2.194.332.253.394.052.017.322.025.81.025.304 0 .574-.002.81-.006l.118-.019.716-.006 1.336.012h1.826l.349-.056c.051-.037.107-.137.166-.3l.065-.157.26-.006c.039 0 .098.002.177.006.004.288.006.722.006 1.302l.006.557-.006.319c0 .108-.008.202-.024.281a2 2 0 0 1-.425.1 4.406 4.406 0 0 1-.337-.707c-.118-.308-.193-.48-.225-.513a.327.327 0 0 0-.165-.106c-.095-.02-.513-.031-1.254-.031-.11 0-.248.008-.413.025a2.886 2.886 0 0 0-.036.4l.006.838v1.84l.024 1.983-.006.814c0 .287.023.504.07.65.064.03.18.057.35.082.031.004.177.037.437.1.118.029.223.062.313.1.02.15.03.242.03.275 0 .038-.006.092-.018.163a10.335 10.335 0 0 1-1.247-.038c-.284-.033-.798-.05-1.543-.05-.118 0-.465.025-1.04.075-.225.017-.371.025-.438.025a2.812 2.812 0 0 0-.012-.144l-.006-.143v-.05c.087-.122.25-.211.49-.27.41-.104.694-.198.852-.281a.82.82 0 0 0 .071-.313c.028-.5.041-1.297.041-2.39l-.03-2.365c0-.65-.011-1.045-.035-1.182a.141.141 0 0 0-.041-.082.13.13 0 0 0-.083-.037c-.122-.017-.52-.025-1.194-.025-.37 0-.619.037-.745.112-.17.105-.424.388-.762.851-.099.134-.172.2-.22.2-.18-.1-.297-.181-.348-.244.122-.27.292-.813.508-1.626.064-.238.109-.399.136-.482ZM102.048 10.28c0-.126.012-.274.035-.445l.739-.137a2.81 2.81 0 0 0 .325-.1l.077-1.565a52.61 52.61 0 0 1-.023-1.263l.006-.15c.011-.172.017-.601.017-1.29l-.012-.18.012-.526-.006-.545V3.81c0-.242-.017-.525-.053-.85a.828.828 0 0 0-.047-.15.406.406 0 0 0-.107-.026 1.307 1.307 0 0 1-.112-.019 4.28 4.28 0 0 0-.491-.062l-.088-.025a1.092 1.092 0 0 1-.243-.05 3.624 3.624 0 0 1-.017-.232c0-.05.012-.119.035-.206.079-.017.189-.025.331-.025.142 0 .241-.002.296-.006.481.054.837.083 1.07.087.106 0 .213.004.319.013.11.004.207.006.29.006.13 0 .447-.021.951-.063.083-.02.174-.031.272-.031.146 0 .268.008.367.025a1.523 1.523 0 0 1-.018.432l-1.04.175c-.087.042-.13.102-.13.181l.017.232.006.1-.006.275-.011.213v.05c.004.046.006.086.006.119l-.006.794c.004.076.006.132.006.17 0 .02-.004.087-.012.2a3.452 3.452 0 0 0-.006.206c0 .063.006.21.018.444.11.021.202.034.277.038l.875.019h.426l1.064.006 1.035-.031c.134 0 .275-.015.425-.044.008-.142.014-.49.018-1.045l.012-.282-.036-1.063-.041-.438c-.012-.03-.039-.056-.083-.082-.138-.083-.414-.177-.827-.281a1.603 1.603 0 0 1-.213-.063c.008-.146.023-.264.047-.356l.16-.006.573.006c.367.05.739.075 1.117.075.087 0 .156-.002.207-.006l.769-.025.207-.013a1.9 1.9 0 0 1 .437-.05c.114 0 .252.006.414.019-.004.162-.014.31-.03.444-.362.08-.601.138-.715.175-.11.034-.223.081-.337.144l-.035.125v.107l.006.162-.006.082a2.383 2.383 0 0 0-.012.2v.156l.006.313v.795l.006.6-.012.795c-.004.183.002.559.018 1.126v.888l.011.739c0 .137-.004.304-.011.5.082.025.159.046.23.063.371.083.65.169.84.256l.017.438-.278.007a6.48 6.48 0 0 1-.65-.038c-.323-.038-.843-.056-1.56-.056-.324 0-.741.027-1.254.08a.687.687 0 0 1-.201-.037c.004-.191.014-.327.03-.406l.455-.113.479-.081c.047-.013.108-.031.183-.057.043-.337.067-.898.071-1.683l.006-.531a7.503 7.503 0 0 1-.036-.795 7.74 7.74 0 0 0-.472-.025l-2.743-.031-.054-.006-.041-.007a6.535 6.535 0 0 1-.355.013h-.165a.868.868 0 0 0-.254.044l-.024.469V7.1c.008.113.012.186.012.22V9.26c0 .108.006.219.017.331l.06.038.869.144a.57.57 0 0 0 .1.031.378.378 0 0 1 .13.056c.012.096.018.16.018.194 0 .054-.008.13-.024.226-.142.004-.262.006-.36.006a4.466 4.466 0 0 1-.343-.013l-.834-.037a8.346 8.346 0 0 0-.827-.032l-.125.007a5.117 5.117 0 0 0-.289.018c-.245.034-.627.05-1.147.05ZM112.677 6.15c0-.517.095-1.036.284-1.558.138-.375.331-.72.579-1.032.248-.313.56-.59.934-.832a3.948 3.948 0 0 1 1.147-.526c.39-.108.826-.162 1.307-.162.819 0 1.531.162 2.134.488a3.728 3.728 0 0 1 1.424 1.32c.45.721.674 1.478.674 2.27 0 1.181-.38 2.193-1.141 3.035-.756.843-1.811 1.264-3.162 1.264-.335 0-.649-.023-.94-.069a3.194 3.194 0 0 1-.58-.137 10.837 10.837 0 0 1-.502-.182 4.997 4.997 0 0 1-1.035-.794 4.075 4.075 0 0 1-.662-.92c-.098-.192-.211-.538-.337-1.039a4.533 4.533 0 0 1-.124-1.126Zm4.026-3.491c-.343 0-.646.086-.91.257a1.92 1.92 0 0 0-.598.556 3.516 3.516 0 0 0-.478 1.139c-.095.409-.142.907-.142 1.495 0 .36.013.616.041.77.008.05.02.135.036.256.035.31.076.534.124.676.169.53.289.857.36.982.119.213.294.424.526.632.119.109.29.209.515.3.224.088.449.132.674.132.425 0 .819-.104 1.182-.313.367-.213.66-.571.881-1.076.221-.505.331-1.162.331-1.97 0-.334-.022-.787-.065-1.358l-.03-.12a3.09 3.09 0 0 1-.059-.256c-.146-.684-.425-1.205-.839-1.564-.41-.359-.926-.538-1.549-.538ZM125.21 7.126h1.862l.946-.012c.13 0 .25.008.36.025.012.196.024.342.036.438l.006.106-.024.325c-.004.05-.006.113-.006.188v.113l-3.204.006a5.723 5.723 0 0 1 .006-.626c.004-.066.006-.114.006-.144l-.006-.312.018-.107ZM137.642 5.887c-.043-1.105-.252-1.918-.627-2.44-.374-.525-.934-.788-1.679-.788-.449 0-.867.108-1.253.325-.382.213-.784.636-1.206 1.27h-.538c.008-.492.15-1.107.426-1.845.761-.259 1.653-.388 2.678-.388 1.304 0 2.303.396 2.997 1.189.694.788 1.041 1.789 1.041 3.003 0 1.355-.393 2.396-1.177 3.122-.78.725-1.821 1.088-3.121 1.088-1.131 0-2.004-.196-2.619-.588a13.443 13.443 0 0 1-.349-1.77c.237 0 .428.016.574.05.571 1.138 1.363 1.708 2.376 1.708.725 0 1.322-.273 1.791-.82.473-.55.71-1.405.71-2.565l-.296.006c-.055 0-.152-.004-.29-.012l-.922-.02c-.599 0-.946.04-1.04.12-.091.079-.184.352-.278.82l-.089.412h-.42l.006-.463.03-.75-.006-.22-.012-.888c0-.254.008-.552.024-.895l.331-.006c.016 0 .045.002.089.006.106.664.226 1.056.36 1.177.138.12.824.181 2.057.181l.432-.019ZM144.5 5.537c.35.117.66.321.928.613s.593.795.975 1.508c.449.838.788 1.376 1.017 1.614.232.234.542.409.928.526.142.041.233.075.272.1.008.075.012.133.012.175 0 .05-.008.127-.024.232l-.65-.013-.893-.025c-.224 0-.52.014-.887.044-.248-.568-.624-1.295-1.129-2.184-.504-.892-.875-1.422-1.111-1.589a1.23 1.23 0 0 0-.727-.256 4.099 4.099 0 0 0-.024.419l.03.863c.008.175.012.342.012.5l-.012.751.012.22.011.431c.079.096.276.188.592.275.177.05.327.117.449.2.012.084.018.147.018.188 0 .034-.004.086-.012.157a9.51 9.51 0 0 1-.432.012c-.291 0-.611-.012-.957-.037l-.397-.025-.532.018-1.046-.006-.562.019-.006-.35c.036-.03.221-.11.556-.244l.154-.07c.173-.083.29-.133.349-.15a.34.34 0 0 0 .153-.206c.024-.092.036-.417.036-.976l-.018-.6.006-1.327-.006-.938.012-.276-.012-.807.018-.319c0-.484-.03-.811-.089-.982-.122-.109-.358-.209-.709-.3-.209-.055-.351-.11-.426-.17l.042-.387c.074-.013.153-.019.236-.019.288 0 .573.02.857.063.288.037.656.056 1.106.056l.254-.013.709-.025a9.21 9.21 0 0 0 .438-.031l.207-.019.147.007a.42.42 0 0 1 .018.137c0 .142-.006.234-.018.275a3.81 3.81 0 0 1-.744.213c-.197.038-.32.073-.367.107-.047.033-.071.108-.071.225 0 .417.004.692.012.826l.012.531-.012.4v.476l-.006.538c.233-.079.459-.202.68-.369.221-.167.498-.546.833-1.138.576-1.022 1.059-1.67 1.449-1.946.394-.28.788-.42 1.182-.42.394 0 .694.107.899.32.209.208.313.459.313.75a.91.91 0 0 1-.195.576.623.623 0 0 1-.526.25.684.684 0 0 1-.414-.112c-.099-.08-.221-.23-.367-.45-.141-.226-.283-.339-.425-.339-.331 0-.759.476-1.283 1.427-.307.55-.589.91-.845 1.076ZM155.862 2.334c.051.125.155.481.313 1.07.071.266.109.55.112.85h-.538c-.378-.567-.768-.973-1.17-1.22a2.498 2.498 0 0 0-1.348-.375c-.611 0-1.103.252-1.478.757-.508.684-.762 1.637-.762 2.86 0 .708.043 1.213.13 1.513.142.488.321.887.538 1.195.165.234.382.42.65.557a2.3 2.3 0 0 0 1.111.282c.434 0 .852-.142 1.254-.426.405-.288.794-.715 1.164-1.282.146-.03.337-.046.574-.05a4.952 4.952 0 0 1-.077.494l-.136.794-.053.188-.083.294c-.241.196-.58.344-1.017.444-.434.096-.968.144-1.602.144-.485 0-.944-.048-1.377-.143a3.183 3.183 0 0 1-1.106-.457c-.449-.3-.802-.626-1.058-.976a3.84 3.84 0 0 1-.574-1.145 4.897 4.897 0 0 1-.183-1.39c0-1.242.386-2.268 1.159-3.077.776-.81 1.765-1.214 2.967-1.214.489 0 .948.027 1.378.081.433.05.837.127 1.212.232ZM161.265 5.537c.351.117.66.321.928.613s.593.795.976 1.508c.449.838.788 1.376 1.016 1.614.233.234.542.409.929.526.141.041.232.075.271.1.008.075.012.133.012.175 0 .05-.008.127-.023.232l-.651-.013-.892-.025c-.225 0-.52.014-.887.044-.248-.568-.625-1.295-1.129-2.184-.505-.892-.875-1.422-1.112-1.589a1.225 1.225 0 0 0-.727-.256 4.382 4.382 0 0 0-.023.419l.029.863c.008.175.012.342.012.5l-.012.751.012.22.012.431c.079.096.276.188.591.275.177.05.327.117.449.2.012.084.018.147.018.188 0 .034-.004.086-.012.157a9.472 9.472 0 0 1-.431.012 13.4 13.4 0 0 1-.958-.037l-.396-.025-.532.018-1.046-.006-.562.019-.006-.35c.035-.03.221-.11.556-.244l.153-.07c.174-.083.29-.133.349-.15a.345.345 0 0 0 .154-.206c.024-.092.035-.417.035-.976l-.017-.6.006-1.327-.006-.938.011-.276-.011-.807.017-.319c0-.484-.029-.811-.088-.982-.122-.109-.359-.209-.71-.3-.209-.055-.35-.11-.425-.17l.041-.387c.075-.013.154-.019.236-.019.288 0 .574.02.858.063.287.037.656.056 1.105.056l.254-.013.71-.025c.106-.004.252-.014.437-.031l.207-.019.148.007a.42.42 0 0 1 .018.137c0 .142-.006.234-.018.275-.24.096-.489.167-.745.213-.197.038-.319.073-.366.107-.048.033-.071.108-.071.225 0 .417.004.692.011.826l.012.531-.012.4v.476l-.005.538c.232-.079.459-.202.679-.369.221-.167.499-.546.834-1.138.575-1.022 1.058-1.67 1.448-1.946.394-.28.788-.42 1.183-.42.394 0 .693.107.898.32.209.208.313.459.313.75a.91.91 0 0 1-.195.576.621.621 0 0 1-.526.25.688.688 0 0 1-.414-.112c-.098-.08-.22-.23-.366-.45-.142-.226-.284-.339-.426-.339-.331 0-.758.476-1.283 1.427-.307.55-.589.91-.845 1.076Z"/><path fill="#fff" d="M169.423 8.565c-.035-.233-.406-.87-1.111-1.908-.225-.33-.434-.655-.627-.976a39.887 39.887 0 0 0-1.034-1.64l-.154-.262a9.514 9.514 0 0 0-.585-.888c-.083-.088-.235-.153-.456-.194l-.088-.025a3.014 3.014 0 0 0-.201-.05.218.218 0 0 1-.03-.1c0-.026.002-.057.006-.094.004-.042.008-.103.012-.182.059-.025.175-.037.349-.037l.39-.013a1.475 1.475 0 0 0 .266.038.623.623 0 0 0 .059-.007c.41.067.96.1 1.649.1.316 0 .625-.023.929-.068a.56.56 0 0 1 .1-.013l.041.006c.02.055.03.096.03.125l-.006.076a.539.539 0 0 0-.006.068l.006.182a1.595 1.595 0 0 1-.325.087l-.266.05a8.735 8.735 0 0 1-.396.07c-.032.003-.047.039-.047.106.055.137.173.35.354.638l.16.275.313.47.828 1.35.609 1.164 1.56-3.503c.119-.267.178-.421.178-.463 0-.117-.128-.175-.385-.175l-.218-.044a2.706 2.706 0 0 1-.189-.038 5.267 5.267 0 0 1-.036-.463c.067 0 .237.013.508.038l.704.031.148.025h.284l.1-.006c.083-.013.164-.02.242-.025l.195-.019.054-.006c.059-.004.116-.01.171-.019l-.006.47-.077.024c-.327.046-.561.117-.703.213-.138.096-.298.35-.479.763l-2.087 4.724c-.599 1.36-1.405 2.04-2.418 2.04-.402 0-.723-.105-.963-.313-.241-.209-.361-.459-.361-.75 0-.226.071-.42.213-.583a.707.707 0 0 1 .567-.25c.123 0 .241.027.355.081.118.05.262.21.432.482.142.221.285.332.431.332.375 0 .712-.305 1.011-.914ZM173.597 2.621l-.006-.475 1.413.094.632-.006h.231c.24 0 .617-.015 1.129-.044.292-.021.475-.031.55-.031.496 0 .871.029 1.123.087.386.084.692.217.916.4.229.184.424.447.586.789.165.338.248.653.248.945 0 .725-.217 1.316-.65 1.77-.43.45-.974.676-1.632.676-.229 0-.447-.03-.656-.088a2.168 2.168 0 0 1-.58-.263 3.393 3.393 0 0 1-.029-.5c.094.008.179.015.254.019.079.004.148.006.207.006.335 0 .617-.098.845-.294.304-.254.456-.667.456-1.239 0-.409-.067-.742-.201-1-.13-.264-.286-.44-.467-.533a1.893 1.893 0 0 0-.852-.187c-.295 0-.506.045-.632.137a.767.767 0 0 0-.071.157l.041 2.946-.012.25.018.264c.004.058.006.143.006.256v.513l.006.82-.012.976c0 .137.012.323.036.557l1.176.156c.016.1.024.18.024.238 0 .062-.01.15-.03.263a1.461 1.461 0 0 1-.225.025 9.79 9.79 0 0 1-.691-.044c-.339-.034-.725-.05-1.159-.05-.489 0-.954.033-1.395.1a3.436 3.436 0 0 1-.355.031 2.219 2.219 0 0 1-.023-.269c0-.037.003-.096.011-.175l.361-.125c.248-.08.463-.175.644-.288a1.171 1.171 0 0 0 .048-.476c-.004-.129-.006-.31-.006-.544l-.018-1.758-.065-1.983c-.028-.943-.049-1.452-.065-1.527a.568.568 0 0 0-.142-.281c-.067-.071-.179-.121-.337-.15a5.063 5.063 0 0 1-.65-.145ZM188.021 2.334c.052.125.156.481.314 1.07.071.266.108.55.112.85h-.538c-.378-.567-.769-.973-1.171-1.22a2.497 2.497 0 0 0-1.347-.375c-.611 0-1.104.252-1.478.757-.509.684-.763 1.637-.763 2.86 0 .708.043 1.213.13 1.513.142.488.321.887.538 1.195.166.234.382.42.65.557.347.188.718.282 1.112.282.433 0 .851-.142 1.253-.426.406-.288.794-.715 1.165-1.282a3.32 3.32 0 0 1 .573-.05 4.678 4.678 0 0 1-.077.494l-.136.794-.053.188-.083.294c-.24.196-.579.344-1.017.444-.433.096-.967.144-1.602.144-.484 0-.943-.048-1.377-.143a3.178 3.178 0 0 1-1.105-.457c-.45-.3-.803-.626-1.059-.976a3.815 3.815 0 0 1-.573-1.145 4.897 4.897 0 0 1-.183-1.39c0-1.242.386-2.268 1.158-3.077.777-.81 1.766-1.214 2.968-1.214a11 11 0 0 1 1.377.081c.434.05.838.127 1.212.232ZM192.094 8.04c2.097-2.24 3.469-3.752 4.115-4.536 0-.309-.01-.486-.03-.532-.019-.05-.084-.102-.195-.157-.11-.058-.325-.127-.644-.206a2.287 2.287 0 0 1-.302-.088c.008-.154.024-.273.048-.356l.165-.006c.331 0 .552.006.662.018.312.042.623.063.934.063.505 0 .966-.023 1.384-.069.153-.017.276-.025.366-.025.087 0 .211.006.373.019a4.542 4.542 0 0 1-.03.444c-.449.1-.745.181-.887.244-.138.058-.207.165-.207.319v.907l.006 1.39-.011.794.017 1.126v.888l.012.739c0 .146-.004.312-.012.5.083.025.16.046.231.063.37.083.65.169.839.256l.018.438-.254.007c-.067 0-.144-.005-.231-.013l-.443-.025c-.323-.038-.84-.056-1.549-.056-.363 0-.64.012-.833.037a6.14 6.14 0 0 1-.45.044.66.66 0 0 1-.183-.038c.004-.2.014-.335.03-.406l.402-.1.23-.044c.248-.042.41-.077.485-.107.051-.308.077-1.046.077-2.214l-.006-1.846.012-1.164-4.139 4.511c.004.467.01.711.018.732.024.03.093.05.207.063l.384.062c.339.067.528.115.568.144.012.096.018.16.018.194 0 .054-.008.13-.024.226l-.367.006a7.4 7.4 0 0 1-.632-.038l-.444-.006-.301-.019-.538-.019a6.5 6.5 0 0 0-.633.038c-.252.025-.589.037-1.01.037 0-.129.011-.277.035-.444.036-.008.118-.02.248-.037l.255-.05c.248-.046.435-.096.561-.15.04-.789.059-1.477.059-2.065V6.7l.018-2.115c0-.638-.022-1.187-.065-1.645a.863.863 0 0 0-.041-.132.298.298 0 0 0-.107-.025 1.245 1.245 0 0 1-.112-.019 3.993 3.993 0 0 0-.491-.062l-.088-.025a.986.986 0 0 1-.243-.05 3.193 3.193 0 0 1-.018-.232c0-.05.012-.119.036-.206.087-.021.179-.031.278-.031.287 0 .622.018 1.005.056.347.033.634.05.863.05.319 0 .613-.015.881-.044.331-.037.526-.056.585-.056.075 0 .169.01.284.031l.006.188c0 .066-.008.148-.024.244l-1.041.175c-.059.008-.094.106-.106.294-.012.188-.018.41-.018.67l.006.293-.006.564.006.325-.017.425c0 .055.003.153.011.294.008.188.012.374.012.557 0 .15-.004.3-.012.45l-.017.326.011 1.039ZM199.969 6.15c0-.517.094-1.036.284-1.558.137-.375.331-.72.579-1.032.248-.313.56-.59.934-.832a3.936 3.936 0 0 1 1.147-.526 4.87 4.87 0 0 1 1.306-.162c.82 0 1.531.162 2.134.488a3.738 3.738 0 0 1 1.425 1.32c.449.721.674 1.478.674 2.27 0 1.181-.38 2.193-1.141 3.035-.757.843-1.811 1.264-3.163 1.264-.335 0-.648-.023-.94-.069a3.203 3.203 0 0 1-.579-.137 10.35 10.35 0 0 1-.502-.182 4.997 4.997 0 0 1-1.035-.794 4.075 4.075 0 0 1-.662-.92c-.099-.192-.211-.538-.337-1.039a4.533 4.533 0 0 1-.124-1.126Zm4.026-3.491a1.64 1.64 0 0 0-.911.257 1.927 1.927 0 0 0-.597.556 3.518 3.518 0 0 0-.479 1.139c-.094.409-.142.907-.142 1.495 0 .36.014.616.042.77.008.05.02.135.035.256.036.31.077.534.124.676.17.53.29.857.361.982.118.213.294.424.526.632.118.109.29.209.514.3.225.088.45.132.674.132.426 0 .82-.104 1.183-.313.366-.213.66-.571.881-1.076.22-.505.331-1.162.331-1.97 0-.334-.022-.787-.065-1.358l-.03-.12a2.704 2.704 0 0 1-.059-.256c-.146-.684-.426-1.205-.84-1.564-.409-.359-.926-.538-1.548-.538ZM209.404 10.28c0-.126.012-.274.035-.445l.739-.137a2.81 2.81 0 0 0 .325-.1l.077-1.565a47.756 47.756 0 0 1-.023-1.263l.005-.15c.012-.172.018-.601.018-1.29l-.012-.18.012-.526-.006-.545V3.81c0-.242-.017-.525-.053-.85a.828.828 0 0 0-.047-.15.406.406 0 0 0-.107-.026 1.245 1.245 0 0 1-.112-.019 4.28 4.28 0 0 0-.491-.062l-.088-.025a1.092 1.092 0 0 1-.243-.05 3.624 3.624 0 0 1-.017-.232c0-.05.011-.119.035-.206.079-.017.189-.025.331-.025.142 0 .241-.002.296-.006.481.054.837.083 1.07.087.106 0 .213.004.319.013.11.004.207.006.29.006.13 0 .447-.021.951-.063.083-.02.174-.031.272-.031.146 0 .268.008.367.025a1.523 1.523 0 0 1-.018.432l-1.04.175c-.087.042-.13.102-.13.181l.017.232.006.1-.006.275-.011.213v.05c.003.046.005.086.005.119l-.005.794c.003.076.005.132.005.17a4 4 0 0 1-.011.2 3.452 3.452 0 0 0-.006.206c0 .063.006.21.017.444.111.021.203.034.278.038l.875.019h.426l1.064.006 1.035-.031c.134 0 .275-.015.425-.044.008-.142.014-.49.018-1.045l.012-.282-.036-1.063-.041-.438c-.012-.03-.04-.056-.083-.082-.138-.083-.414-.177-.828-.281a1.633 1.633 0 0 1-.212-.063c.008-.146.023-.264.047-.356l.16-.006.573.006c.367.05.739.075 1.117.075.087 0 .156-.002.207-.006l.769-.025.207-.013a1.9 1.9 0 0 1 .437-.05c.114 0 .252.006.414.019-.004.162-.014.31-.03.444-.362.08-.601.138-.715.175-.11.034-.223.081-.337.144l-.035.125v.107l.006.162-.006.082a2.383 2.383 0 0 0-.012.2v.156l.006.313v.795l.006.6-.012.795c-.004.183.002.559.018 1.126v.888l.011.739c0 .137-.004.304-.011.5.082.025.159.046.23.063.371.083.65.169.84.256l.017.438-.278.007c-.189 0-.406-.013-.65-.038-.323-.038-.843-.056-1.561-.056-.323 0-.74.027-1.253.08a.687.687 0 0 1-.201-.037c.004-.191.014-.327.03-.406l.455-.113.479-.081c.047-.013.108-.031.183-.057.043-.337.067-.898.071-1.683l.006-.531a7.503 7.503 0 0 1-.036-.795 7.74 7.74 0 0 0-.472-.025l-2.744-.031-.053-.006-.041-.007a6.535 6.535 0 0 1-.355.013h-.165a.88.88 0 0 0-.255.044l-.023.469V7.1c.008.113.012.186.012.22V9.26c0 .108.006.219.017.331l.059.038.87.144a.57.57 0 0 0 .1.031.378.378 0 0 1 .13.056c.012.096.018.16.018.194 0 .054-.008.13-.024.226-.142.004-.262.006-.36.006a4.466 4.466 0 0 1-.343-.013l-.834-.037a8.355 8.355 0 0 0-.828-.032l-.124.007a5.117 5.117 0 0 0-.289.018c-.245.034-.627.05-1.147.05ZM219.879 10.28c0-.126.012-.274.036-.445l.739-.137c.09-.021.199-.055.325-.1l.077-1.565a48.767 48.767 0 0 1-.024-1.263l.006-.15c.012-.172.018-.601.018-1.29l-.012-.18.012-.526-.006-.545V3.81c0-.242-.018-.525-.053-.85a.777.777 0 0 0-.048-.15.398.398 0 0 0-.106-.026 1.189 1.189 0 0 1-.112-.019 4.309 4.309 0 0 0-.491-.062l-.089-.025a1.08 1.08 0 0 1-.242-.05 3.193 3.193 0 0 1-.018-.232c0-.05.012-.119.036-.206.078-.017.189-.025.331-.025.142 0 .24-.002.295-.006.481.054.838.083 1.07.087.107 0 .213.004.319.013.111.004.207.006.29.006.13 0 .447-.021.952-.063.083-.02.173-.031.272-.031.146 0 .268.008.366.025a1.63 1.63 0 0 1-.017.432l-1.041.175c-.087.042-.13.102-.13.181l.018.232.006.1-.006.275-.012.213v.05c.004.046.006.086.006.119l-.006.794c.004.076.006.132.006.17 0 .02-.004.087-.012.2a3.452 3.452 0 0 0-.006.206c0 .063.006.21.018.444.11.021.203.034.278.038l.875.019h.425l1.064.006 1.035-.031c.134 0 .276-.015.426-.044.008-.142.013-.49.017-1.045l.012-.282-.035-1.063-.042-.438c-.011-.03-.039-.056-.082-.082-.138-.083-.414-.177-.828-.281a1.603 1.603 0 0 1-.213-.063c.008-.146.024-.264.047-.356l.16-.006.573.006c.367.05.739.075 1.118.075.086 0 .155-.002.207-.006l.768-.025.207-.013c.142-.033.288-.05.438-.05.114 0 .252.006.413.019-.004.162-.013.31-.029.444-.363.08-.601.138-.715.175a1.747 1.747 0 0 0-.337.144l-.036.125v.107l.006.162-.006.082a2.383 2.383 0 0 0-.012.2v.156l.006.313v.795l.006.6-.012.795c-.004.183.002.559.018 1.126v.888l.012.739c0 .137-.004.304-.012.5.083.025.16.046.231.063.37.083.65.169.839.256l.018.438-.278.007c-.189 0-.406-.013-.65-.038-.324-.038-.844-.056-1.561-.056a12.4 12.4 0 0 0-1.253.08.676.676 0 0 1-.201-.037 2.66 2.66 0 0 1 .029-.406l.455-.113.479-.081c.048-.013.109-.031.184-.057.043-.337.067-.898.07-1.683l.006-.531a7.811 7.811 0 0 1-.035-.795 7.82 7.82 0 0 0-.473-.025l-2.743-.031-.053-.006-.042-.007a6.578 6.578 0 0 1-.354.013h-.166a.873.873 0 0 0-.254.044l-.024.469V7.1c.008.113.012.186.012.22V9.26c0 .108.006.219.018.331l.059.038.869.144a.598.598 0 0 0 .1.031.383.383 0 0 1 .131.056c.011.096.017.16.017.194 0 .054-.008.13-.023.226-.142.004-.262.006-.361.006a4.428 4.428 0 0 1-.343-.013l-.833-.037a8.355 8.355 0 0 0-.828-.032l-.124.007a5.191 5.191 0 0 0-.29.018c-.244.034-.626.05-1.147.05ZM233.151 5.65c.43-.038.82-.057 1.17-.057 1.116 0 1.938.217 2.466.651.528.434.792.97.792 1.608 0 .755-.294 1.358-.881 1.808-.587.446-1.32.67-2.199.67-.162 0-.434-.015-.816-.044a12.31 12.31 0 0 0-.958-.032c-.165 0-.477.015-.934.044l-1.383.056.012-.5c.079-.025.193-.048.343-.069.283-.042.492-.096.626-.162.103-.096.154-.532.154-1.308 0-1.472-.01-2.745-.03-3.817-.015-1.076-.047-1.64-.094-1.695-.043-.058-.177-.094-.402-.106a8.543 8.543 0 0 1-.579-.07l-.018-.443.266-.007c.315 0 .743.023 1.283.07l.496.037c.115 0 .292-.01.532-.032l.349-.03c.229-.013.388-.026.479-.038.138-.021.29-.032.455-.032l.006.132-.012.212a.776.776 0 0 0-.006.113c-.603.12-.942.215-1.017.282-.07.066-.106.254-.106.563l.006.312c.008.155.012.363.012.626l-.012 1.258Zm.083 3.941c.252.113.49.17.715.17 1.277 0 1.915-.585 1.915-1.753 0-1.234-.644-1.852-1.933-1.852-.346 0-.603.021-.768.063a7.877 7.877 0 0 0-.012.375l.012.395-.006.925.018 1.29v.1c0 .087.019.183.059.287Zm4.841.714v-.451c.079-.025.209-.06.391-.106.256-.067.447-.136.573-.207.071-.13.106-.308.106-.538l-.005-.738.011-1.427-.006-.337.042-1.277-.012-.832.018-.338-.03-.713-.006-.269a1.404 1.404 0 0 0-.041-.2c-.162-.08-.424-.13-.786-.15a1.917 1.917 0 0 1-.207-.02l-.018-.55 1.691.075c.209.009.339.013.39.013.232 0 .605-.017 1.117-.05.288-.021.469-.034.544-.038.004.08.006.146.006.2 0 .071-.004.163-.012.276a6.019 6.019 0 0 1-.544.169c-.201.05-.366.102-.496.156a2.314 2.314 0 0 0-.036.47c0 .179.006.325.018.437-.012.705-.018 1.247-.018 1.627l.006 1.652-.018.838.012 1.251-.006.238c0 .033.008.081.024.144.24.054.459.092.656.113.036.004.156.02.361.05a2.519 2.519 0 0 1 .017.525.842.842 0 0 0-.118.007 6.356 6.356 0 0 1-.218.012c-.028 0-.079-.006-.154-.019a40.808 40.808 0 0 0-.786-.087l-1.047-.013c-.209 0-.512.021-.91.063-.26.025-.43.04-.509.044ZM242.355 2.202c.142-.004.257-.006.343-.006.095 0 .172.002.231.006l.319.025.148-.006a6.065 6.065 0 0 0 1.165.088c.512 0 .997-.034 1.454-.1.063.004.132.01.207.018a7.115 7.115 0 0 0-.012.413c-.059.03-.101.048-.124.057l-.586.106a1.814 1.814 0 0 0-.195.069c.004.075.012.129.024.162.288.522.558.956.81 1.302l.573.87.065.1.337-.438.733-1.133c.178-.28.29-.488.337-.626a.332.332 0 0 0 .024-.118l-.018-.1a.843.843 0 0 0-.189-.088 2.854 2.854 0 0 0-.225-.013 3.508 3.508 0 0 1-.549-.05 1.447 1.447 0 0 1-.018-.187c0-.021.004-.071.012-.15 0-.03.002-.078.006-.144a.36.36 0 0 0 .118-.032c.355.025 1.088.038 2.199.038.142 0 .268-.006.378-.019.111-.012.178-.019.201-.019.04 0 .099.007.178.02.019.083.029.158.029.224 0 .042-.002.109-.006.2l-.91.207a.785.785 0 0 0-.248.175c-.091.084-.335.396-.733.939l-.858 1.176a9.036 9.036 0 0 1-.248.344l-.171.225.088.132c.217.33.438.66.663.994l1.176 1.84c.311.488.542.788.692.9.106.08.376.163.81.251.011.083.017.138.017.163 0 .02-.01.098-.029.231l.017.057-.419.012c-.091 0-.268-.01-.532-.031l-.728-.05-.076-.013a4.153 4.153 0 0 0-.172-.006c-.248 0-.542.014-.881.044-.339.029-.587.044-.745.044-.102 0-.269-.005-.502-.013v-.163c0-.075.004-.152.012-.231a9.18 9.18 0 0 1 .952-.207c.043-.029.092-.058.147-.087l.006-.07a.4.4 0 0 0-.017-.112 1.821 1.821 0 0 0-.166-.344 15.377 15.377 0 0 0-.703-1.057l-.704-.995c-.091.113-.408.576-.952 1.389a3.369 3.369 0 0 0-.437.676c-.079.154-.118.252-.118.294l.006.05.076.112c.146.071.327.144.544.22.217.07.357.118.42.143l.035.288v.031l-.011.07a2.012 2.012 0 0 1-.231.024 8.65 8.65 0 0 1-.567-.05 6.653 6.653 0 0 0-.574-.025l-.278-.006-1.306.063-.278-.007-.024-.281c0-.038.006-.092.018-.163l.254-.031c.308-.03.544-.088.71-.175.067-.038.191-.165.372-.382.28-.325.532-.645.757-.957.13-.184.232-.322.307-.413.209-.305.522-.74.94-1.308l-.349-.557c-.252-.33-.447-.602-.585-.82l-.349-.537a5.732 5.732 0 0 0-.266-.438 14.095 14.095 0 0 1-.674-1.039.91.91 0 0 0-.378-.35c-.154-.075-.404-.123-.751-.144v-.094a.59.59 0 0 0-.006-.1 1.116 1.116 0 0 1-.023-.157l.011-.15ZM254.013 10.28c0-.13.012-.278.036-.445.035-.008.118-.02.248-.037l.254-.05c.249-.046.436-.096.562-.15l.077-1.565-.024-1.263.006-.395.018-1.751-.006-.545V3.81c0-.496-.034-.83-.101-1a.286.286 0 0 0-.106-.026 1.189 1.189 0 0 1-.112-.019 4.017 4.017 0 0 0-.491-.062l-.089-.025a.987.987 0 0 1-.242-.05 3.193 3.193 0 0 1-.018-.232c0-.05.012-.119.036-.206.086-.021.179-.031.277-.031.237 0 .481.01.733.03.714.055 1.49.082 2.33.082l1.903-.031 1.401.012c1.049 0 1.79-.027 2.223-.081.17-.02.286-.031.349-.031.075 0 .197.008.366.025a4.566 4.566 0 0 1-.029.444c-.532.108-.883.215-1.052.319-.032.083-.048.32-.048.707v.125l.006.313.006 1.395-.006 1.101.012.82v.888l.012.739c0 .146-.004.312-.012.5.083.025.16.046.231.063.37.083.65.169.839.256l.018.438-.278.007c-.051 0-.12-.005-.207-.013l-.443-.025c-.324-.038-.84-.056-1.549-.056-.233 0-.448.008-.645.025l-.62.056a.644.644 0 0 1-.201-.038c.004-.2.013-.335.029-.406l.402-.1.231-.044c.248-.042.41-.077.485-.107.051-.204.076-1.501.076-3.891l-.035-2.71a6.35 6.35 0 0 0-.473-.024l-2.743-.031-.053-.007a.128.128 0 0 0-.042-.006.812.812 0 0 0-.094.006l-.26.007c-.217 0-.357.014-.42.043-.02.434-.03.814-.03 1.139l.018 3.222v1.808c0 .23.006.384.018.463.023.03.092.05.207.063l.272.044c.114.016.224.035.331.056l.218.05a.27.27 0 0 1 .131.056c.011.096.017.16.017.194 0 .054-.008.13-.023.226l-.367.006c-.15 0-.361-.013-.632-.038l-.444-.006-.301-.031-.621-.007c-.158 0-.339.015-.544.044l-.384.032h-.633ZM264.4 2.621l-.006-.475 1.413.094.633-.006h.23c.241 0 .617-.015 1.129-.044.292-.021.475-.031.55-.031.497 0 .871.029 1.123.087.387.084.692.217.917.4.228.184.423.447.585.789.165.338.248.653.248.945 0 .725-.217 1.316-.65 1.77-.43.45-.974.676-1.632.676-.228 0-.447-.03-.656-.088a2.148 2.148 0 0 1-.579-.263 3.237 3.237 0 0 1-.03-.5c.095.008.179.015.254.019.079.004.148.006.207.006.335 0 .617-.098.846-.294.303-.254.455-.667.455-1.239 0-.409-.067-.742-.201-1-.13-.264-.286-.44-.467-.533a1.888 1.888 0 0 0-.851-.187c-.296 0-.507.045-.633.137a.767.767 0 0 0-.071.157l.041 2.946-.011.25.017.264c.004.058.006.143.006.256v.513l.006.82-.012.976c0 .137.012.323.036.557l1.176.156c.016.1.024.18.024.238 0 .062-.01.15-.03.263a1.464 1.464 0 0 1-.224.025c-.123 0-.353-.015-.692-.044-.339-.034-.725-.05-1.159-.05-.488 0-.953.033-1.395.1a3.436 3.436 0 0 1-.355.031 2.449 2.449 0 0 1-.023-.269c0-.037.004-.096.012-.175l.36-.125c.249-.08.463-.175.645-.288a1.204 1.204 0 0 0 .047-.476c-.004-.129-.006-.31-.006-.544l-.018-1.758-.065-1.983c-.027-.943-.049-1.452-.065-1.527a.56.56 0 0 0-.142-.281c-.067-.071-.179-.121-.337-.15a5.063 5.063 0 0 1-.65-.145ZM272.091 6.15c0-.517.095-1.036.284-1.558.138-.375.331-.72.579-1.032.249-.313.56-.59.934-.832a3.948 3.948 0 0 1 1.147-.526c.39-.108.826-.162 1.307-.162.819 0 1.531.162 2.134.488a3.728 3.728 0 0 1 1.424 1.32c.45.721.674 1.478.674 2.27 0 1.181-.38 2.193-1.141 3.035-.756.843-1.811 1.264-3.162 1.264-.335 0-.649-.023-.94-.069a3.194 3.194 0 0 1-.58-.137 10.837 10.837 0 0 1-.502-.182 4.997 4.997 0 0 1-1.035-.794 4.107 4.107 0 0 1-.662-.92c-.098-.192-.211-.538-.337-1.039a4.58 4.58 0 0 1-.124-1.126Zm4.026-3.491c-.343 0-.646.086-.91.257a1.927 1.927 0 0 0-.597.556 3.496 3.496 0 0 0-.479 1.139c-.095.409-.142.907-.142 1.495 0 .36.014.616.041.77.008.05.02.135.036.256.035.31.077.534.124.676.169.53.289.857.36.982.119.213.294.424.527.632.118.109.289.209.514.3.225.088.449.132.674.132.425 0 .82-.104 1.182-.313.367-.213.66-.571.881-1.076.221-.505.331-1.162.331-1.97 0-.334-.022-.787-.065-1.358l-.03-.12a3.09 3.09 0 0 1-.059-.256c-.146-.684-.425-1.205-.839-1.564-.41-.359-.926-.538-1.549-.538ZM288.461 4.31l-.249.013c-.051 0-.118-.004-.201-.012a6.237 6.237 0 0 1-.142-.37l-.23-.444a3.026 3.026 0 0 0-.384-.575c-.06-.025-.186-.042-.379-.05l-1.354-.082-.804.013-.348.006a.64.64 0 0 0-.042.257l.006 2.947-.012.406.018.37.024.456c0 .117-.008.31-.024.582-.008.13-.012.238-.012.325l.024.513-.006.2c.012.188.018.324.018.407 0 .08.014.154.041.225.032.021.152.059.361.113l.189.056c.114.034.209.055.284.063.138.012.226.04.266.081.039.038.059.117.059.238 0 .18-.057.269-.172.269-.043 0-.214-.015-.514-.044l-.313-.012-.077-.007a6.34 6.34 0 0 0-.361-.012l-.626.012h-.846l-.804.038-.224.006a.22.22 0 0 1-.113-.031 2.743 2.743 0 0 1-.006-.15c0-.063.004-.146.012-.25.04-.046.136-.088.29-.126.083-.02.171-.052.266-.093l.225-.088c.177-.063.279-.108.307-.138.028-.029.053-.14.077-.331a3.89 3.89 0 0 0 .035-.42l-.017-1.32-.012-.8.012-.645-.006-.62c0-.325-.012-.769-.036-1.332l.012-.788c0-.15-.02-.244-.059-.282-.036-.037-.13-.056-.284-.056-.055 0-.215-.023-.479-.069-.26-.05-.404-.083-.431-.1-.028-.054-.042-.177-.042-.37 0-.04.004-.085.012-.13l.166-.007c.075 0 .248.01.52.032l1.708.068 2.33-.012.786-.019c.528 0 1.011.031 1.448.094.071.07.107.183.107.338l.006 1.658ZM288.756 2.621l-.006-.475 1.413.094.633-.006h.23c.241 0 .617-.015 1.129-.044.292-.021.475-.031.55-.031.497 0 .871.029 1.123.087.387.084.692.217.917.4.228.184.423.447.585.789.165.338.248.653.248.945 0 .725-.217 1.316-.65 1.77-.43.45-.974.676-1.632.676-.228 0-.447-.03-.656-.088a2.148 2.148 0 0 1-.579-.263 3.237 3.237 0 0 1-.03-.5c.095.008.18.015.254.019.079.004.148.006.207.006.335 0 .617-.098.846-.294.303-.254.455-.667.455-1.239 0-.409-.067-.742-.201-1-.13-.264-.286-.44-.467-.533a1.888 1.888 0 0 0-.851-.187c-.296 0-.507.045-.633.137a.825.825 0 0 0-.071.157l.041 2.946-.011.25.017.264c.004.058.006.143.006.256v.513l.006.82-.012.976c0 .137.012.323.036.557l1.176.156c.016.1.024.18.024.238 0 .062-.01.15-.03.263a1.464 1.464 0 0 1-.224.025c-.122 0-.353-.015-.692-.044-.339-.034-.725-.05-1.159-.05-.488 0-.953.033-1.395.1a3.438 3.438 0 0 1-.354.031 2.27 2.27 0 0 1-.024-.269c0-.037.004-.096.012-.175l.36-.125c.249-.08.463-.175.645-.288a1.204 1.204 0 0 0 .047-.476c-.004-.129-.006-.31-.006-.544l-.018-1.758-.065-1.983c-.027-.943-.049-1.452-.065-1.527a.56.56 0 0 0-.142-.281c-.067-.071-.179-.121-.337-.15a5.106 5.106 0 0 1-.65-.145ZM295.761 10.305l.012-.426c.075-.025.207-.056.396-.094.304-.062.487-.119.55-.169.067-.05.148-.17.243-.363l1.194-3.31 1.401-3.89c.13.003.254.005.372.005h.266l.053.113 1.029 2.578c.233.546.441 1.078.627 1.595.185.513.345.932.479 1.258.078.196.187.49.325.882.071.213.179.48.325.8.079.176.138.278.177.307.071.063.185.105.343.125.162.021.335.07.52.144.02.138.03.24.03.307 0 .029-.002.075-.006.138-.292 0-.613-.015-.964-.044a12.61 12.61 0 0 0-1.619-.031l-1.005.056-.29.012c0-.146.006-.286.018-.419l.656-.15c.197-.054.311-.096.343-.125a.205.205 0 0 0 .059-.144.52.52 0 0 0-.03-.17l-.236-.612-.467-1.226-2.259-.007c-.082.2-.254.69-.514 1.47-.075.222-.112.372-.112.451 0 .108.027.186.083.232.09.079.264.135.52.168.035.009.175.032.42.07.004.15.006.254.006.312a.913.913 0 0 1-.012.144c-.245 0-.828-.035-1.75-.106l-.243.043c-.291.05-.569.076-.833.076h-.107Zm2.779-3.517c.922.013 1.466.02 1.632.02l.147-.007a23.796 23.796 0 0 0-.461-1.295 20.388 20.388 0 0 0-.461-1.133l-.857 2.415ZM304.103 10.298l.018-.425c.492-.067.806-.173.94-.32.086-.1.153-.36.201-.781l.076-2.228.089-2.265c.008-.137.012-.22.012-.25 0-.588-.034-.928-.101-1.02-.063-.091-.315-.181-.756-.269a7.498 7.498 0 0 1-.26-.062 3.534 3.534 0 0 1-.012-.263v-.194a6.11 6.11 0 0 1 .514-.019l1.732.063c.04.004.095.008.166.012l.272.013c.067.083.134.194.201.331.145.305.339.751.579 1.34l.065.168.922 2.121c.02.05.051.123.095.22.059.15.12.293.183.43.063.134.128.282.195.445.071.163.138.307.201.432.055-.1.109-.21.16-.332.157-.383.311-.736.461-1.057.26-.567.613-1.435 1.058-2.603.071-.188.187-.47.349-.844.165-.38.256-.58.272-.601.035-.033.106-.05.213-.05.039 0 .1-.002.183-.006.205-.013.451-.023.739-.032.414-.004.745-.016.993-.037.252-.025.394-.038.426-.038.039 0 .086.004.142.013.003.058.005.104.005.137l-.011.188c0 .038-.002.094-.006.169-.371.058-.672.146-.905.263-.161.083-.242.188-.242.313v.093l.1 1.915c.012.175.044 1.045.095 2.609a34.293 34.293 0 0 0 .089 1.489c.004.1.023.165.059.194.039.03.394.15 1.064.363.004.067.006.117.006.15 0 .088-.002.175-.006.263-.107 0-.375-.023-.804-.07-.43-.05-.832-.074-1.206-.074a18.069 18.069 0 0 0-1.874.094l.012-.432c.161-.067.376-.123.644-.169.189-.033.309-.09.361-.169.051-.08.077-.3.077-.663 0-.138-.002-.259-.006-.363a47.994 47.994 0 0 1-.036-1.827l-.1-2.208a8.251 8.251 0 0 0-.042-.651l-1.472 3.579c-.035.083-.088.204-.159.363-.091.204-.152.344-.184.419-.303.771-.514 1.362-.632 1.77a7.05 7.05 0 0 1-.142.407l-.455-.006-.319-.957c-.095-.25-.257-.63-.485-1.14a22.41 22.41 0 0 1-.314-.719 3.908 3.908 0 0 1-.076-.169l-.071-.156a.23.23 0 0 0-.018-.063l-.881-2.008-.538-1.22-.047 2.96-.042 1.92c0 .317.056.544.166.682.114.134.357.248.727.344l.284.075v.457a8.056 8.056 0 0 1-.739-.05 8.552 8.552 0 0 0-1.041-.05c-.09 0-.478.019-1.164.056ZM315.205 10.298l.018-.425c.492-.067.806-.173.94-.32.086-.1.153-.36.201-.781l.076-2.228.089-2.265c.008-.137.012-.22.012-.25 0-.588-.033-.928-.101-1.02-.063-.091-.315-.181-.756-.269a7.498 7.498 0 0 1-.26-.062 3.534 3.534 0 0 1-.012-.263v-.194a6.11 6.11 0 0 1 .514-.019l1.732.063c.04.004.095.008.166.012l.272.013c.067.083.134.194.201.331.146.305.339.751.579 1.34l.065.168.922 2.121c.02.05.052.123.095.22.059.15.12.293.183.43.063.134.128.282.195.445.071.163.138.307.201.432.055-.1.109-.21.16-.332.158-.383.311-.736.461-1.057.26-.567.613-1.435 1.058-2.603.071-.188.187-.47.349-.844.166-.38.256-.58.272-.601.035-.033.106-.05.213-.05.039 0 .1-.002.183-.006.205-.013.451-.023.739-.032.414-.004.745-.016.993-.037.252-.025.394-.038.426-.038.039 0 .086.004.142.013.004.058.006.104.006.137l-.012.188c0 .038-.002.094-.006.169-.371.058-.672.146-.905.263-.161.083-.242.188-.242.313v.093l.1 1.915c.012.175.044 1.045.095 2.609a36.416 36.416 0 0 0 .089 1.489c.004.1.023.165.059.194.039.03.394.15 1.064.363.004.067.006.117.006.15 0 .088-.002.175-.006.263-.106 0-.374-.023-.804-.07-.43-.05-.832-.074-1.206-.074a18.085 18.085 0 0 0-1.874.094l.012-.432c.161-.067.376-.123.644-.169.189-.033.31-.09.361-.169.051-.08.077-.3.077-.663 0-.138-.002-.259-.006-.363a47.994 47.994 0 0 1-.036-1.827l-.1-2.208a8.251 8.251 0 0 0-.042-.651l-1.472 3.579c-.035.083-.088.204-.159.363-.091.204-.152.344-.184.419-.303.771-.514 1.362-.632 1.77a7.05 7.05 0 0 1-.142.407l-.455-.006-.319-.957c-.095-.25-.257-.63-.485-1.14a20.024 20.024 0 0 1-.313-.719 3.147 3.147 0 0 1-.077-.169l-.071-.156a.23.23 0 0 0-.018-.063l-.881-2.008-.538-1.22-.047 2.96-.041 1.92c0 .317.055.544.165.682.114.134.357.248.727.344l.284.075v.457a8.056 8.056 0 0 1-.739-.05 8.545 8.545 0 0 0-1.04-.05c-.091 0-.479.019-1.165.056Z"/></svg>