<svg width="26" height="28" viewBox="0 0 26 28" fill="none" xmlns="http://www.w3.org/2000/svg">
<path d="M5.66683 22.264C8.60816 22.264 11.0002 19.872 11.0002 16.9306V3.40396L23.0002 7.76663V17.6733C22.1933 17.1926 21.2727 16.9362 20.3335 16.9306C17.3922 16.9306 15.0002 19.3226 15.0002 22.264C15.0002 25.2053 17.3922 27.5973 20.3335 27.5973C23.2748 27.5973 25.6668 25.2053 25.6668 22.264V6.8333C25.667 6.55974 25.5829 6.29276 25.4259 6.06873C25.2689 5.8447 25.0467 5.6745 24.7895 5.5813L10.1228 0.247965C9.92149 0.174361 9.70535 0.150441 9.49279 0.178236C9.28022 0.206032 9.07751 0.284722 8.90186 0.407623C8.72622 0.530523 8.58283 0.694003 8.48388 0.884174C8.38493 1.07435 8.33334 1.28559 8.3335 1.49996V12.34C7.52665 11.8592 6.60601 11.6028 5.66683 11.5973C2.7255 11.5973 0.333496 13.9893 0.333496 16.9306C0.333496 19.872 2.7255 22.264 5.66683 22.264Z" fill="#191919" fill-opacity="0.3"/>
</svg>
