<svg width="27" height="28" viewBox="0 0 27 28" fill="none" xmlns="http://www.w3.org/2000/svg">
<path d="M13.6668 0.666626C21.0308 0.666626 27.0002 6.63596 27.0002 14C27.0002 21.364 21.0308 27.3333 13.6668 27.3333C6.30283 27.3333 0.333496 21.364 0.333496 14C0.333496 6.63596 6.30283 0.666626 13.6668 0.666626ZM13.6668 5.99996C13.3132 5.99996 12.9741 6.14044 12.724 6.39048C12.474 6.64053 12.3335 6.97967 12.3335 7.33329V14C12.3336 14.3536 12.4741 14.6926 12.7242 14.9426L16.7242 18.9426C16.9756 19.1855 17.3124 19.3199 17.662 19.3169C18.0116 19.3138 18.346 19.1736 18.5933 18.9264C18.8405 18.6792 18.9807 18.3448 18.9837 17.9952C18.9868 17.6456 18.8524 17.3088 18.6095 17.0573L15.0002 13.448V7.33329C15.0002 6.97967 14.8597 6.64053 14.6096 6.39048C14.3596 6.14044 14.0205 5.99996 13.6668 5.99996Z" fill="#191919" fill-opacity="0.3"/>
</svg>
