<svg width="36" height="35" viewBox="0 0 36 35" fill="none" xmlns="http://www.w3.org/2000/svg">
<path d="M0.5 33.125C0.5 33.6223 0.697544 34.0992 1.04917 34.4508C1.40081 34.8025 1.87772 35 2.375 35H33.625C34.1223 35 34.5992 34.8025 34.9508 34.4508C35.3025 34.0992 35.5 33.6223 35.5 33.125V11.25H0.5V33.125ZM25.5 14.0625C25.5 13.9796 25.5329 13.9001 25.5915 13.8415C25.6501 13.7829 25.7296 13.75 25.8125 13.75H28.9375C29.0204 13.75 29.0999 13.7829 29.1585 13.8415C29.2171 13.9001 29.25 13.9796 29.25 14.0625V17.1875C29.25 17.2704 29.2171 17.3499 29.1585 17.4085C29.0999 17.4671 29.0204 17.5 28.9375 17.5H25.8125C25.7296 17.5 25.6501 17.4671 25.5915 17.4085C25.5329 17.3499 25.5 17.2704 25.5 17.1875V14.0625ZM25.5 20.3125C25.5 20.2296 25.5329 20.1501 25.5915 20.0915C25.6501 20.0329 25.7296 20 25.8125 20H28.9375C29.0204 20 29.0999 20.0329 29.1585 20.0915C29.2171 20.1501 29.25 20.2296 29.25 20.3125V23.4375C29.25 23.5204 29.2171 23.5999 29.1585 23.6585C29.0999 23.7171 29.0204 23.75 28.9375 23.75H25.8125C25.7296 23.75 25.6501 23.7171 25.5915 23.6585C25.5329 23.5999 25.5 23.5204 25.5 23.4375V20.3125ZM19.25 14.0625C19.25 13.9796 19.2829 13.9001 19.3415 13.8415C19.4001 13.7829 19.4796 13.75 19.5625 13.75H22.6875C22.7704 13.75 22.8499 13.7829 22.9085 13.8415C22.9671 13.9001 23 13.9796 23 14.0625V17.1875C23 17.2704 22.9671 17.3499 22.9085 17.4085C22.8499 17.4671 22.7704 17.5 22.6875 17.5H19.5625C19.4796 17.5 19.4001 17.4671 19.3415 17.4085C19.2829 17.3499 19.25 17.2704 19.25 17.1875V14.0625ZM19.25 20.3125C19.25 20.2296 19.2829 20.1501 19.3415 20.0915C19.4001 20.0329 19.4796 20 19.5625 20H22.6875C22.7704 20 22.8499 20.0329 22.9085 20.0915C22.9671 20.1501 23 20.2296 23 20.3125V23.4375C23 23.5204 22.9671 23.5999 22.9085 23.6585C22.8499 23.7171 22.7704 23.75 22.6875 23.75H19.5625C19.4796 23.75 19.4001 23.7171 19.3415 23.6585C19.2829 23.5999 19.25 23.5204 19.25 23.4375V20.3125ZM19.25 26.5625C19.25 26.4796 19.2829 26.4001 19.3415 26.3415C19.4001 26.2829 19.4796 26.25 19.5625 26.25H22.6875C22.7704 26.25 22.8499 26.2829 22.9085 26.3415C22.9671 26.4001 23 26.4796 23 26.5625V29.6875C23 29.7704 22.9671 29.8499 22.9085 29.9085C22.8499 29.9671 22.7704 30 22.6875 30H19.5625C19.4796 30 19.4001 29.9671 19.3415 29.9085C19.2829 29.8499 19.25 29.7704 19.25 29.6875V26.5625ZM13 20.3125C13 20.2296 13.0329 20.1501 13.0915 20.0915C13.1501 20.0329 13.2296 20 13.3125 20H16.4375C16.5204 20 16.5999 20.0329 16.6585 20.0915C16.7171 20.1501 16.75 20.2296 16.75 20.3125V23.4375C16.75 23.5204 16.7171 23.5999 16.6585 23.6585C16.5999 23.7171 16.5204 23.75 16.4375 23.75H13.3125C13.2296 23.75 13.1501 23.7171 13.0915 23.6585C13.0329 23.5999 13 23.5204 13 23.4375V20.3125ZM13 26.5625C13 26.4796 13.0329 26.4001 13.0915 26.3415C13.1501 26.2829 13.2296 26.25 13.3125 26.25H16.4375C16.5204 26.25 16.5999 26.2829 16.6585 26.3415C16.7171 26.4001 16.75 26.4796 16.75 26.5625V29.6875C16.75 29.7704 16.7171 29.8499 16.6585 29.9085C16.5999 29.9671 16.5204 30 16.4375 30H13.3125C13.2296 30 13.1501 29.9671 13.0915 29.9085C13.0329 29.8499 13 29.7704 13 29.6875V26.5625ZM6.75 20.3125C6.75 20.2296 6.78292 20.1501 6.84153 20.0915C6.90013 20.0329 6.97962 20 7.0625 20H10.1875C10.2704 20 10.3499 20.0329 10.4085 20.0915C10.4671 20.1501 10.5 20.2296 10.5 20.3125V23.4375C10.5 23.5204 10.4671 23.5999 10.4085 23.6585C10.3499 23.7171 10.2704 23.75 10.1875 23.75H7.0625C6.97962 23.75 6.90013 23.7171 6.84153 23.6585C6.78292 23.5999 6.75 23.5204 6.75 23.4375V20.3125ZM6.75 26.5625C6.75 26.4796 6.78292 26.4001 6.84153 26.3415C6.90013 26.2829 6.97962 26.25 7.0625 26.25H10.1875C10.2704 26.25 10.3499 26.2829 10.4085 26.3415C10.4671 26.4001 10.5 26.4796 10.5 26.5625V29.6875C10.5 29.7704 10.4671 29.8499 10.4085 29.9085C10.3499 29.9671 10.2704 30 10.1875 30H7.0625C6.97962 30 6.90013 29.9671 6.84153 29.9085C6.78292 29.8499 6.75 29.7704 6.75 29.6875V26.5625ZM33.625 2.5H29.2562V0H25.5062V2.5H10.4937V0H6.74375V2.5H2.375C2.12971 2.49794 1.88643 2.54443 1.65919 2.63681C1.43195 2.72918 1.22523 2.8656 1.05094 3.03822C0.876656 3.21083 0.738248 3.41623 0.643692 3.64257C0.549136 3.86892 0.500301 4.11173 0.5 4.35703V8.75H35.5V4.35703C35.4997 4.11173 35.4509 3.86892 35.3563 3.64257C35.2618 3.41623 35.1233 3.21083 34.9491 3.03822C34.7748 2.8656 34.5681 2.72918 34.3408 2.63681C34.1136 2.54443 33.8703 2.49794 33.625 2.5Z" fill="#05B093"/>
</svg>
